<?xml version="1.0" standalone="no"?>
<!DOCTYPE svg PUBLIC "-//W3C//DTD SVG 20010904//EN"
 "http://www.w3.org/TR/2001/REC-SVG-20010904/DTD/svg10.dtd">
<svg version="1.0" xmlns="http://www.w3.org/2000/svg"
 width="980.000000pt" height="980.000000pt" viewBox="0 0 980.000000 980.000000"
 preserveAspectRatio="xMidYMid meet">
<metadata>
Created by potrace 1.14, written by Peter Selinger 2001-2017
</metadata>
<g transform="translate(0.000000,980.000000) scale(0.100000,-0.100000)"
fill="#000000" stroke="none">
<path d="M4855 8604 c-87 -45 -409 -262 -1093 -736 -365 -253 -665 -458 -667
-456 -2 1 -6 174 -10 383 -8 499 -19 693 -39 713 -12 12 -61 17 -228 24 -209
10 -776 3 -831 -9 -62 -13 -61 -12 -69 -518 -3 -253 -6 -676 -7 -941 l-1 -481
-302 -208 c-1296 -894 -1571 -1087 -1592 -1117 -9 -12 -16 -39 -16 -59 0 -29
7 -43 30 -62 42 -36 65 -41 102 -22 18 9 157 101 308 205 535 368 751 512 758
506 3 -4 9 -1032 13 -2284 4 -1692 9 -2286 18 -2313 l11 -37 328 -8 c418 -10
6507 -8 6786 3 l210 8 9 30 c6 19 12 878 16 2312 4 1255 9 2285 13 2288 7 7
244 -151 763 -508 318 -219 323 -222 370 -207 45 15 67 50 63 103 l-3 42 -190
136 c-715 510 -4669 3239 -4694 3239 -3 0 -29 -12 -56 -26z m240 -345 c483
-326 1441 -985 2775 -1911 l525 -364 3 -2297 2 -2297 -3495 0 -3495 0 0 2299
0 2299 1097 759 c1213 839 1418 981 1828 1260 462 314 549 372 565 372 8 1 96
-54 195 -120z m-2215 -467 l0 -538 -152 -104 c-316 -217 -600 -410 -604 -410
-2 0 -4 358 -4 795 l0 795 380 0 380 0 0 -538z"/>
<path d="M5791 6423 c-28 -23 -65 -149 -130 -438 -97 -429 -617 -2841 -674
-3125 -19 -91 -20 -88 105 -365 173 -383 259 -535 304 -535 31 0 67 24 194
131 300 251 465 401 482 437 37 80 172 671 537 2362 247 1145 251 1165 251
1233 0 79 -13 86 -238 141 -295 71 -774 176 -803 176 -4 0 -16 -8 -28 -17z
m459 -284 c151 -33 301 -68 333 -77 l58 -16 -6 -40 c-11 -72 -53 -270 -62
-292 -8 -22 -10 -21 -342 53 -184 41 -345 79 -358 84 -27 10 -28 -2 13 209 25
126 38 152 72 144 9 -2 141 -31 292 -65z m-227 -545 c235 -51 486 -110 492
-115 6 -7 -90 -465 -360 -1714 -254 -1171 -223 -1045 -252 -1045 -51 0 -653
131 -681 149 -13 8 20 178 187 976 248 1189 381 1795 393 1795 5 0 105 -21
221 -46z m-465 -3025 c103 -22 191 -44 195 -48 8 -8 -58 -70 -213 -200 l-85
-71 -19 23 c-18 21 -176 330 -176 343 0 12 105 -5 298 -47z"/>
<path d="M6178 5444 c-16 -8 -28 -16 -28 -17 0 -2 -16 -73 -36 -158 -47 -207
-233 -1051 -338 -1539 -102 -478 -145 -695 -153 -775 -5 -55 -3 -62 20 -83 14
-13 42 -26 64 -29 68 -9 75 5 132 247 103 438 365 1638 436 2000 15 74 30 182
33 239 4 93 3 106 -14 118 -24 17 -82 16 -116 -3z"/>
<path d="M2040 5632 c-31 -15 -36 -23 -43 -72 -12 -79 -1 -320 16 -363 12 -27
22 -35 48 -39 50 -8 82 5 99 38 12 23 15 70 15 217 l0 189 -28 24 c-33 29 -60
30 -107 6z"/>
<path d="M2026 5036 c-20 -19 -25 -38 -31 -111 -9 -99 0 -269 16 -315 12 -34
35 -43 95 -38 59 5 67 30 72 223 5 183 -4 236 -43 253 -41 19 -83 14 -109 -12z"/>
<path d="M2054 4465 c-16 -6 -35 -19 -42 -28 -18 -21 -27 -240 -14 -340 12
-95 28 -117 86 -117 78 0 89 24 94 212 5 155 -1 225 -21 252 -19 25 -69 36
-103 21z"/>
<path d="M2044 3876 c-17 -8 -34 -22 -38 -32 -13 -34 -18 -239 -8 -329 8 -74
14 -93 33 -108 34 -27 96 -20 122 15 18 24 21 47 25 172 6 185 -2 252 -31 271
-35 22 -70 26 -103 11z"/>
<path d="M2039 3285 c-15 -8 -30 -22 -33 -32 -14 -35 -18 -240 -7 -328 12
-101 28 -125 86 -125 77 0 94 48 95 261 0 173 -5 196 -44 220 -37 22 -61 23
-97 4z"/>
<path d="M2038 2694 c-15 -8 -31 -27 -35 -42 -5 -15 -8 -101 -7 -192 1 -197
11 -235 67 -245 22 -4 46 -2 64 7 43 20 54 81 51 276 l-3 164 -28 24 c-32 27
-69 30 -109 8z"/>
<path d="M2105 2153 c-28 -7 -62 -41 -69 -69 -9 -34 19 -88 52 -105 37 -18
281 -25 349 -9 60 13 93 46 93 92 0 82 -41 98 -247 97 -87 -1 -167 -3 -178 -6z"/>
<path d="M2684 2150 c-28 -11 -64 -58 -64 -82 0 -32 27 -73 57 -88 38 -19 280
-26 351 -10 43 9 57 18 73 43 10 18 19 40 19 50 0 34 -29 75 -61 86 -37 13
-344 14 -375 1z"/>
<path d="M3265 2146 c-30 -13 -55 -51 -55 -84 0 -9 9 -31 19 -49 28 -44 91
-57 262 -51 145 5 176 14 202 58 24 40 21 65 -12 102 l-29 33 -179 3 c-133 1
-186 -1 -208 -12z"/>
<path d="M3853 2146 c-86 -39 -66 -150 31 -175 53 -13 265 -14 320 -1 85 19
118 103 63 158 l-27 27 -178 3 c-136 1 -184 -1 -209 -12z"/>
<path d="M4443 2146 c-85 -38 -65 -154 32 -176 56 -13 267 -12 321 1 58 15 86
49 82 102 -2 30 -10 45 -31 61 -26 19 -43 21 -200 23 -131 2 -180 -1 -204 -11z"/>
</g>
</svg>
